<?xml version="1.0" encoding="UTF-8" standalone="no"?>
<svg
   version="1.0"
   width="323.98669pt"
   height="326.29816pt"
   viewBox="0 0 323.98669 326.29816"
   preserveAspectRatio="xMidYMid meet"
   id="svg58"
   sodipodi:docname="f13edc6297dbb35fd6f72b7287ef1749.svg"
   xmlns:inkscape="http://www.inkscape.org/namespaces/inkscape"
   xmlns:sodipodi="http://sodipodi.sourceforge.net/DTD/sodipodi-0.dtd"
   xmlns="http://www.w3.org/2000/svg"
   xmlns:svg="http://www.w3.org/2000/svg">
  <defs
     id="defs62" />
  <sodipodi:namedview
     id="namedview60"
     pagecolor="#ffffff"
     bordercolor="#666666"
     borderopacity="1.0"
     inkscape:pageshadow="2"
     inkscape:pageopacity="0.0"
     inkscape:pagecheckerboard="0"
     inkscape:document-units="pt" />
  <metadata
     id="metadata2">
Created by potrace 1.16, written by Peter Selinger 2001-2019
</metadata>
  <g
     transform="matrix(0.1,0,0,-0.1,-12.013305,332)"
     fill="#000000"
     stroke="none"
     id="g56">
    <path
       d="m 1677,3313 c -4,-3 -7,-24 -7,-45 0,-21 -4,-38 -10,-38 -6,0 -10,-37 -10,-90 0,-53 -4,-90 -10,-90 -5,0 -10,4 -10,9 0,5 -11,11 -24,15 -20,5 -24,13 -29,73 -4,38 -7,87 -7,111 0,35 -3,42 -20,42 -18,0 -20,-7 -20,-60 0,-33 4,-60 10,-60 6,0 10,-22 10,-50 0,-27 5,-50 10,-50 6,0 10,-15 10,-34 0,-19 3,-41 6,-50 7,-17 44,-22 44,-6 0,6 11,10 25,10 20,0 25,5 25,25 0,16 6,25 15,25 9,0 15,-9 15,-25 0,-26 24,-35 33,-12 4,9 8,8 16,-3 8,-12 11,-7 11,23 0,20 5,37 10,37 6,0 10,37 10,90 0,53 4,90 10,90 6,0 10,16 10,35 0,28 -4,35 -19,35 -17,0 -20,-11 -26,-127 -3,-71 -9,-135 -12,-143 -10,-29 -19,20 -22,119 -1,53 -7,98 -12,99 -5,2 -9,15 -9,28 0,23 -10,31 -23,17 z"
       id="path4" />
    <path
       d="m 1830,3296 c 0,-13 -4,-26 -9,-28 -5,-1 -12,-61 -14,-133 -2,-71 -2,-109 0,-82 3,38 8,47 24,47 16,0 19,-8 21,-52 1,-41 2,-45 5,-18 3,19 10,38 16,42 9,6 9,8 0,8 -7,0 -13,11 -13,25 0,14 5,25 10,25 6,0 10,9 10,19 0,11 4,21 10,23 5,2 13,30 16,63 5,49 3,63 -10,74 -10,9 -16,10 -16,2 0,-6 -7,-11 -15,-11 -8,0 -15,5 -15,10 0,6 -4,10 -10,10 -5,0 -10,-11 -10,-24 z"
       id="path6" />
    <path
       d="m 1950,3265 c 0,-19 -4,-35 -10,-35 -5,0 -10,-11 -10,-25 0,-14 -4,-25 -9,-25 -5,0 -12,-34 -16,-75 -4,-41 -11,-75 -16,-75 -14,0 -11,-20 5,-36 19,-19 52,-18 60,2 9,25 7,54 -4,54 -6,0 -17,5 -24,12 -10,10 -9,16 9,34 12,12 31,25 43,28 28,9 30,46 3,46 -22,0 -36,40 -18,52 7,5 24,7 40,5 25,-3 27,-1 27,35 0,38 0,38 -40,38 -39,0 -40,-1 -40,-35 z"
       id="path8" />
    <path
       d="m 1423,3264 c -9,-25 4,-178 16,-182 6,-2 11,-15 11,-28 0,-13 4,-24 9,-24 5,0 12,-13 16,-30 5,-24 12,-30 32,-30 h 25 l -3,122 c -3,85 -8,123 -17,126 -6,2 -12,14 -12,27 0,35 -64,51 -77,19 z"
       id="path10" />
    <path
       d="m 1330,3260 c 0,-5 -7,-10 -15,-10 -12,0 -15,-13 -15,-59 0,-33 4,-61 8,-63 5,-1 12,-20 15,-41 5,-32 4,-35 -9,-23 -8,8 -14,19 -14,25 0,6 -7,11 -15,11 -8,0 -15,5 -15,10 0,6 -11,10 -25,10 -16,0 -25,6 -25,15 0,9 9,15 25,15 16,0 25,6 25,15 0,8 -4,15 -10,15 -5,0 -10,9 -10,20 0,24 -34,27 -56,6 -20,-21 -18,-75 5,-95 10,-9 21,-26 25,-38 4,-14 15,-23 27,-23 11,0 17,-4 14,-10 -3,-5 3,-10 14,-10 12,0 21,-7 21,-15 0,-8 5,-15 10,-15 6,0 10,-4 10,-10 0,-21 -39,-10 -43,13 -3,14 -5,8 -6,-15 -1,-42 19,-68 55,-68 20,0 24,5 24,30 0,17 -4,30 -9,30 -5,0 -11,13 -13,29 -4,27 -3,28 19,18 13,-5 23,-17 23,-26 0,-17 33,-51 50,-51 6,0 10,23 10,50 0,38 -4,50 -15,50 -8,0 -15,-7 -15,-16 0,-26 -25,-9 -28,19 -2,15 -8,27 -13,27 -5,0 -9,9 -9,20 0,11 -4,20 -10,20 -5,0 -10,14 -10,30 0,28 2,30 27,24 25,-7 26,-6 20,30 -7,43 -47,91 -47,56 z"
       id="path12" />
    <path
       d="m 2173,3235 c -7,-7 -15,-25 -19,-39 -3,-14 -10,-26 -15,-26 -5,0 -9,-9 -9,-20 0,-11 -4,-20 -9,-20 -5,0 -11,-18 -15,-40 -3,-22 -11,-40 -16,-40 -6,0 -10,-6 -10,-14 0,-8 -4,-16 -9,-18 -5,-1 -12,-18 -16,-35 -6,-31 -5,-33 19,-33 14,0 26,-4 26,-10 0,-19 48,-11 55,10 9,30 45,26 45,-5 0,-18 4,-23 15,-19 8,4 15,15 15,26 0,11 6,26 13,33 31,36 37,46 37,65 0,11 4,20 10,20 5,0 12,11 16,25 3,14 10,25 15,25 5,0 9,11 9,24 0,13 5,26 12,28 15,5 1,28 -17,28 -7,0 -17,-10 -21,-22 -3,-12 -28,-43 -55,-68 -27,-26 -49,-53 -49,-59 0,-7 -7,-19 -15,-27 -8,-9 -15,-12 -15,-8 0,4 -6,0 -13,-10 -8,-11 -19,-15 -30,-10 -24,9 -23,71 2,93 10,9 22,31 25,49 4,17 12,32 17,32 5,0 9,9 9,19 0,11 5,23 10,26 12,7 14,35 3,35 -5,-1 -13,-7 -20,-15 z"
       id="path14" />
    <path
       d="m 988,3098 c -10,-12 -18,-28 -18,-34 0,-15 27,-44 41,-44 5,0 9,-7 9,-16 0,-9 14,-30 30,-46 17,-15 30,-35 30,-43 0,-8 5,-15 10,-15 6,0 10,-7 10,-15 0,-8 5,-15 10,-15 6,0 10,-4 10,-10 0,-5 -7,-10 -15,-10 -19,0 -105,86 -105,105 0,8 -4,15 -9,15 -5,0 -12,11 -15,25 -4,14 -11,25 -16,25 -6,0 -10,11 -10,25 0,16 -6,25 -16,25 -14,0 -15,-8 -9,-47 l 7,-48 -20,23 c -17,19 -62,32 -62,17 0,-13 89,-95 103,-95 9,0 19,-9 22,-20 3,-11 11,-20 16,-20 5,0 9,-6 9,-14 0,-8 4,-16 9,-18 4,-1 12,-13 15,-25 6,-20 4,-23 -18,-23 -14,0 -26,-4 -26,-10 0,-17 -22,-11 -41,12 -23,26 -23,23 -2,43 22,23 3,35 -59,35 -41,0 -48,3 -48,20 0,11 3,20 8,20 4,0 14,4 22,10 12,7 11,12 -8,28 -22,19 -72,20 -72,1 0,-5 -7,-9 -15,-9 -8,0 -15,-4 -15,-10 0,-5 4,-10 9,-10 5,0 12,-11 15,-24 3,-14 15,-27 26,-31 10,-3 22,-15 25,-26 4,-10 13,-19 22,-19 8,0 30,-15 49,-34 34,-34 37,-59 8,-70 -18,-7 -45,4 -38,15 3,5 -2,9 -11,9 -9,0 -26,11 -39,25 -13,14 -26,25 -30,25 -7,0 -20,10 -51,38 -7,6 -18,12 -24,12 -6,0 -11,5 -11,10 0,6 -7,10 -16,10 -25,0 -13,-44 13,-48 12,-2 25,-12 28,-22 3,-10 16,-22 27,-26 12,-3 32,-17 45,-30 13,-13 29,-24 36,-24 7,0 19,-9 27,-20 8,-11 20,-20 26,-20 7,0 20,-7 28,-16 9,-8 16,-11 16,-5 0,5 9,13 20,16 22,7 28,50 8,58 -10,4 -10,6 -1,6 6,1 15,-3 18,-9 11,-19 37,-10 70,23 22,22 32,40 29,53 -4,17 1,19 46,21 39,1 56,7 71,24 23,27 23,21 0,47 -19,23 -41,29 -41,12 0,-5 -7,-10 -15,-10 -8,0 -15,7 -15,15 0,8 -4,15 -10,15 -16,0 -12,32 6,44 23,17 7,46 -26,46 -41,0 -60,10 -60,31 0,12 7,19 20,19 23,0 26,16 6,36 -21,20 -48,17 -68,-8 z"
       id="path16" />
    <path
       d="m 2483,3073 c -12,-2 -24,-14 -27,-29 -4,-13 -11,-24 -16,-24 -6,0 -10,-9 -10,-20 0,-11 -4,-20 -9,-20 -5,0 -11,-22 -15,-50 -5,-41 -10,-50 -26,-50 -15,0 -20,7 -20,25 0,18 -4,23 -15,19 -8,-4 -15,-15 -15,-25 0,-10 -4,-19 -10,-19 -5,0 -10,-11 -10,-25 0,-20 5,-25 25,-25 14,0 25,5 25,10 0,6 7,10 15,10 9,0 26,11 39,25 13,14 26,25 30,25 16,0 3,-25 -29,-56 -32,-30 -34,-36 -21,-49 8,-8 24,-15 36,-15 26,0 61,31 42,38 -6,2 -12,14 -12,27 0,26 28,40 60,30 41,-13 60,3 60,51 0,40 2,44 25,44 14,0 25,-4 25,-10 0,-15 39,-12 56,4 18,18 18,24 0,42 -24,23 -75,30 -82,10 -3,-9 -15,-16 -25,-16 -12,0 -21,-9 -25,-25 -3,-14 -13,-25 -21,-25 -7,0 -24,-11 -37,-25 -13,-14 -26,-25 -30,-25 -3,0 -6,11 -6,25 0,14 5,25 10,25 6,0 10,16 10,36 0,19 7,42 15,50 13,14 15,13 15,-10 0,-36 37,-36 46,-1 3,14 10,25 15,25 5,0 9,7 9,15 0,15 -43,19 -97,8 z"
       id="path18" />
    <path
       d="m 2704,2941 c 3,-5 -5,-12 -18,-15 -14,-3 -28,-15 -31,-26 -3,-11 -14,-20 -23,-20 -18,0 -52,-33 -52,-50 0,-6 -13,-10 -28,-10 -18,0 -37,-9 -50,-25 -12,-14 -26,-25 -32,-25 -5,0 -10,-4 -10,-10 0,-5 7,-10 15,-10 17,0 55,-35 55,-50 0,-6 12,-22 26,-35 15,-14 23,-25 18,-26 -5,0 1,-4 14,-10 13,-5 35,-6 49,-3 22,6 24,10 18,40 -4,26 -2,34 9,34 8,0 16,6 19,13 3,10 9,10 26,0 28,-17 59,-16 77,2 9,8 11,15 5,15 -20,0 -12,38 9,43 26,7 61,-3 54,-14 -8,-14 45,-11 60,3 10,9 10,16 2,25 -6,7 -17,19 -24,28 -8,10 -24,14 -40,11 -15,-2 -37,-5 -50,-5 -13,-1 -20,-5 -17,-11 3,-5 -1,-10 -9,-10 -9,0 -16,-4 -16,-9 0,-5 -11,-12 -25,-15 -14,-4 -25,-11 -25,-16 0,-6 -11,-10 -24,-10 -13,0 -26,-4 -28,-9 -1,-5 -15,-13 -31,-16 -22,-6 -26,-4 -21,9 3,9 15,16 25,16 10,0 19,4 19,9 0,5 11,12 25,15 14,4 25,11 25,16 0,6 7,10 15,10 8,0 15,4 15,10 0,5 16,12 35,16 19,3 35,10 35,14 0,5 7,16 16,24 14,15 13,16 -15,16 -41,0 -113,-29 -104,-43 3,-6 1,-7 -5,-3 -19,12 -14,34 10,42 31,9 48,29 48,53 0,16 -6,21 -26,21 -14,0 -23,-4 -20,-9 z"
       id="path20" />
    <path
       d="m 620,2791 c 0,-5 -9,-12 -19,-16 -25,-8 -24,-45 1,-45 10,0 21,-7 24,-15 4,-8 15,-15 25,-15 10,0 19,-4 19,-9 0,-5 14,-12 30,-16 17,-4 30,-11 30,-16 0,-5 9,-9 19,-9 10,0 21,-7 25,-15 3,-8 14,-15 25,-15 16,0 31,-18 31,-36 0,-12 -28,-1 -40,16 -8,11 -25,20 -38,20 -12,0 -25,7 -28,15 -4,8 -17,15 -30,15 -13,0 -24,4 -24,10 0,5 -11,12 -25,16 -14,3 -25,10 -25,15 0,5 -9,9 -20,9 -11,0 -20,5 -20,10 0,16 -47,11 -54,-6 -8,-21 1,-34 24,-34 10,0 21,-7 24,-16 3,-8 10,-12 16,-9 5,3 10,2 10,-4 0,-5 8,-12 18,-15 9,-2 -8,-3 -38,-1 -30,2 -56,8 -58,14 -6,18 -40,12 -47,-8 -10,-34 5,-49 56,-56 27,-4 49,-11 49,-16 0,-14 -98,-11 -103,4 -4,10 -6,10 -6,0 -1,-7 -10,-13 -22,-13 -22,0 -49,-22 -49,-39 0,-6 4,-11 9,-11 5,0 12,-11 15,-25 5,-18 13,-25 31,-25 14,0 25,-4 25,-9 0,-6 20,-13 45,-17 25,-3 45,-10 45,-15 0,-5 7,-9 15,-9 8,0 15,-4 15,-10 0,-5 -4,-10 -10,-10 -5,0 -10,-7 -10,-15 0,-13 12,-19 32,-16 4,0 5,-6 1,-15 -5,-13 -17,-14 -72,-8 -36,3 -67,11 -69,15 -2,5 -15,9 -28,9 -15,0 -24,6 -24,15 0,9 9,15 25,15 18,0 25,5 25,19 0,26 -30,34 -91,26 -46,-6 -49,-9 -49,-37 0,-36 19,-56 59,-64 17,-4 31,-10 31,-15 0,-5 23,-9 50,-9 28,0 50,-4 50,-10 0,-6 32,-10 75,-10 43,0 75,4 75,10 0,6 7,10 15,10 19,0 20,37 1,55 -7,8 -25,17 -40,21 -39,10 -31,24 14,24 22,0 40,-4 40,-10 0,-17 19,-11 43,12 l 23,23 -27,27 c -14,16 -34,28 -43,28 -9,0 -16,5 -16,10 0,6 -7,10 -15,10 -8,0 -15,4 -15,10 0,5 -18,13 -40,16 -22,4 -37,10 -34,15 7,12 44,12 44,0 0,-5 18,-11 40,-15 22,-3 40,-11 40,-16 0,-6 7,-10 15,-10 8,0 15,-4 15,-10 0,-5 16,-10 35,-10 28,0 35,4 35,20 0,11 5,20 12,20 6,0 1,8 -10,19 -27,23 -28,31 -2,31 11,0 20,-4 20,-10 0,-5 7,-10 15,-10 8,0 15,7 15,15 0,8 7,15 15,15 26,0 17,37 -10,44 -14,4 -25,11 -25,16 0,6 -5,10 -11,10 -6,0 -18,7 -26,16 -14,13 -14,17 -2,25 10,6 10,9 2,9 -7,0 -13,6 -13,13 0,20 -35,57 -54,57 -9,0 -19,7 -22,15 -7,17 -84,22 -84,6 z"
       id="path22" />
    <path
       d="m 2950,2741 c 0,-5 -20,-13 -45,-17 -25,-3 -45,-10 -45,-15 0,-5 -7,-9 -15,-9 -8,0 -15,-4 -15,-10 0,-5 -18,-13 -40,-16 -22,-4 -40,-10 -40,-15 0,-5 -7,-9 -16,-9 -9,0 -27,-11 -40,-25 -13,-14 -28,-25 -34,-25 -5,0 -10,-11 -10,-25 0,-24 3,-25 55,-25 30,0 55,4 55,10 0,5 27,12 60,16 33,4 60,11 60,15 0,5 7,9 15,9 8,0 15,4 15,9 0,5 26,13 57,17 43,7 59,14 61,27 3,14 -4,17 -32,17 -20,0 -36,-4 -36,-10 0,-5 -11,-10 -25,-10 -14,0 -25,-4 -25,-9 0,-5 -21,-12 -47,-16 -27,-4 -50,-11 -53,-15 -5,-8 -41,-13 -67,-11 -27,2 -11,20 22,27 19,3 35,10 35,15 0,5 11,9 25,9 14,0 25,4 25,9 0,5 14,12 30,16 17,4 30,11 30,16 0,5 9,9 21,9 31,0 50,22 32,38 -7,7 -13,8 -13,3 z"
       id="path24" />
    <path
       d="m 1630,2660 c 0,-5 -9,-10 -20,-10 -30,0 -81,-56 -87,-95 -3,-19 -10,-35 -14,-35 -5,0 -9,-22 -9,-50 0,-27 4,-50 9,-50 5,0 12,-20 15,-44 5,-32 13,-47 27,-51 10,-4 19,-11 19,-16 0,-5 5,-9 11,-9 6,0 17,-6 24,-14 19,-19 0,-36 -43,-36 -18,0 -40,-6 -48,-14 -15,-16 -19,-56 -5,-56 5,0 11,-22 15,-50 4,-27 11,-50 16,-50 6,0 10,-4 10,-10 0,-17 34,-50 52,-50 10,0 18,-3 18,-6 0,-10 -42,-44 -54,-44 -7,0 -18,-9 -26,-20 -8,-11 -20,-20 -26,-20 -7,0 -19,-6 -26,-14 -12,-11 -14,-4 -14,42 0,35 -4,57 -12,60 -7,2 -12,10 -12,18 0,8 -4,14 -10,14 -5,0 -10,7 -10,15 0,12 -44,65 -55,65 -6,0 -98,-95 -113,-116 -7,-11 -10,-13 -7,-6 4,8 -5,12 -34,12 -23,0 -41,-4 -41,-10 0,-5 -7,-10 -15,-10 -8,0 -15,-4 -15,-9 0,-5 -11,-12 -25,-15 -18,-5 -25,-13 -25,-31 0,-14 5,-25 10,-25 6,0 10,-22 10,-50 0,-43 -3,-50 -20,-50 -11,0 -20,-5 -20,-11 0,-10 -6,-6 -42,28 -23,22 -38,42 -38,53 0,5 -4,10 -10,10 -5,0 -12,16 -16,35 -3,19 -10,35 -15,35 -15,0 -10,70 5,86 21,20 54,17 61,-6 9,-27 42,-26 51,3 4,12 15,29 25,38 10,9 21,37 25,68 6,45 4,55 -14,71 -12,11 -25,20 -31,20 -5,0 -11,6 -13,13 -3,8 -28,12 -79,12 h -75 l -47,-48 c -26,-27 -47,-55 -47,-63 0,-8 -4,-14 -10,-14 -5,0 -10,-11 -10,-25 0,-14 -4,-25 -10,-25 -6,0 -10,-37 -10,-90 0,-53 4,-90 10,-90 6,0 10,-11 10,-25 0,-14 4,-25 9,-25 5,0 12,-20 15,-45 4,-25 11,-45 17,-45 5,0 9,-5 9,-11 0,-7 11,-22 25,-35 14,-13 25,-26 25,-29 0,-6 8,-16 37,-47 22,-23 42,-38 53,-38 5,0 10,-5 10,-11 0,-14 -25,-39 -39,-39 -6,0 -11,-4 -11,-9 0,-5 -10,-13 -22,-17 -13,-4 -30,-15 -38,-24 -8,-9 -25,-20 -37,-24 -13,-4 -23,-12 -23,-17 0,-5 -7,-9 -15,-9 -8,0 -15,-4 -15,-10 0,-5 -11,-12 -25,-16 -22,-6 -25,-11 -25,-55 0,-27 5,-49 10,-49 6,0 10,-7 10,-16 0,-23 64,-84 89,-84 12,0 21,-4 21,-10 0,-5 9,-10 20,-10 11,0 20,-4 20,-9 0,-5 25,-12 55,-16 30,-3 55,-11 55,-16 0,-5 21,-9 46,-9 25,0 43,-4 40,-9 -6,-9 40,-21 80,-21 13,0 24,-4 24,-10 0,-5 14,-10 30,-10 17,0 30,-4 30,-10 0,-5 9,-10 21,-10 17,0 13,-7 -25,-45 -25,-24 -46,-49 -46,-55 0,-5 -4,-10 -10,-10 -9,0 -220,-206 -220,-215 0,-9 69,-5 74,4 4,5 24,12 46,16 22,4 40,11 40,16 0,5 9,9 20,9 11,0 20,4 20,9 0,4 27,11 60,15 33,4 60,11 60,16 0,6 6,10 14,10 8,0 16,5 18,11 2,6 25,13 51,16 26,3 47,10 47,14 0,5 7,9 15,9 8,0 15,4 15,9 0,5 23,12 50,16 28,4 50,11 50,16 0,5 9,9 20,9 11,0 20,4 20,9 0,5 23,11 50,15 28,4 50,11 50,16 0,6 20,10 45,10 25,0 45,-4 45,-9 0,-5 16,-12 35,-15 19,-4 35,-11 35,-16 0,-6 5,-10 11,-10 11,0 39,-25 39,-35 0,-4 7,-13 15,-21 17,-18 20,-64 4,-64 -5,0 -7,6 -3,13 6,9 4,9 -7,1 -8,-6 -50,-14 -94,-16 -47,-3 -81,-10 -83,-17 -2,-6 -10,-18 -18,-25 -16,-16 -19,-86 -4,-86 6,0 10,-6 10,-13 0,-8 9,-25 21,-38 20,-23 27,-24 137,-24 83,0 116,3 120,13 2,6 15,12 28,12 13,0 24,4 24,10 0,5 16,12 35,16 19,3 35,10 35,15 0,5 11,9 25,9 14,0 25,4 25,10 0,5 18,13 40,16 22,4 40,10 40,15 0,5 7,9 15,9 8,0 15,4 15,9 0,6 20,13 45,17 25,3 45,10 45,15 0,5 7,9 15,9 8,0 15,4 15,9 0,5 18,11 40,15 22,3 40,11 40,16 0,6 9,10 20,10 11,0 20,4 20,9 0,4 16,11 35,14 19,3 41,12 48,19 8,7 26,22 40,33 14,10 29,32 32,47 4,15 11,28 16,28 5,0 9,11 9,25 0,14 5,25 10,25 6,0 10,16 10,35 0,19 -4,35 -10,35 -5,0 -10,18 -10,40 0,22 -4,40 -10,40 -5,0 -12,16 -16,35 -3,20 -9,34 -12,31 -7,-8 -42,34 -42,51 0,7 11,13 25,13 14,0 25,5 25,10 0,6 11,10 25,10 37,0 32,34 -10,74 -19,19 -35,36 -35,39 0,3 14,8 31,12 30,7 51,20 91,58 10,9 25,17 33,17 8,0 15,4 15,9 0,5 14,12 30,16 21,5 30,13 30,26 0,16 -7,19 -44,19 -74,0 -106,10 -112,36 -3,13 -10,24 -15,24 -5,0 -9,7 -9,15 0,8 5,15 10,15 6,0 10,9 10,20 0,11 7,20 15,20 8,0 15,7 15,15 0,8 5,15 10,15 6,0 10,7 10,15 0,10 -11,15 -35,15 -19,0 -35,5 -35,10 0,6 -11,10 -25,10 -14,0 -25,5 -25,10 0,6 -12,10 -27,10 -47,0 -73,11 -73,30 0,10 6,20 13,23 9,3 12,37 12,125 0,92 3,122 12,122 7,0 13,-4 13,-10 0,-15 19,-12 36,4 17,17 21,191 4,181 -5,-3 -10,3 -10,14 0,23 -94,121 -115,121 -8,0 -15,5 -15,10 0,6 -11,10 -25,10 -14,0 -25,5 -25,10 0,6 -16,10 -36,10 -21,0 -33,-4 -29,-10 4,-6 -6,-10 -24,-10 -24,0 -32,-5 -37,-25 -3,-14 -10,-25 -15,-25 -5,0 -9,-7 -9,-15 0,-8 -4,-15 -9,-15 -14,0 -24,-91 -16,-144 5,-32 13,-47 26,-51 27,-9 23,-25 -6,-25 -14,0 -25,5 -25,10 0,6 -20,10 -45,10 h -45 v -100 c 0,-60 4,-100 10,-100 6,0 10,-9 10,-20 0,-15 -7,-20 -25,-20 -14,0 -25,5 -25,10 0,6 -16,10 -35,10 h -35 v 69 c 0,37 -3,89 -6,115 l -7,46 h -71 c -39,0 -77,-4 -85,-9 -16,-10 -18,-64 -2,-69 15,-5 14,-29 -1,-36 -10,-5 -10,-7 0,-12 21,-10 14,-34 -10,-34 -23,0 -23,2 -23,134 0,127 -1,135 -22,154 -13,11 -23,24 -23,31 0,6 -5,11 -11,11 -6,0 -17,7 -25,15 -14,13 -12,15 16,15 17,0 38,6 46,14 16,16 19,76 4,76 -5,0 -10,7 -10,15 0,8 -4,15 -10,15 -5,0 -12,16 -16,35 -4,21 -13,37 -25,40 -10,4 -19,11 -19,16 0,5 -7,9 -15,9 -8,0 -15,5 -15,10 0,6 -32,10 -75,10 -43,0 -75,-4 -75,-10 z m 148,-48 c 2,-7 8,-12 14,-12 5,0 16,-6 24,-14 7,-8 18,-16 23,-18 6,-1 11,-23 13,-48 l 3,-45 -52,-3 c -50,-3 -53,-2 -53,21 0,26 -21,37 -71,37 -22,0 -28,-5 -31,-30 -6,-41 20,-69 69,-77 21,-3 45,-14 54,-25 9,-10 21,-18 27,-18 19,0 82,-69 82,-90 0,-11 5,-20 10,-20 6,0 10,-20 10,-45 0,-25 -4,-45 -10,-45 -5,0 -10,-13 -10,-30 0,-16 -4,-30 -9,-30 -5,0 -11,-10 -13,-22 -2,-15 -11,-24 -25,-26 -13,-2 -23,-8 -23,-13 0,-5 -7,-9 -15,-9 -8,0 -15,-4 -15,-8 0,-5 -29,-10 -65,-11 -40,-1 -65,2 -65,8 0,6 -7,11 -15,11 -8,0 -15,4 -15,9 0,5 -9,13 -20,16 -11,3 -23,17 -26,31 -3,13 -10,24 -15,24 -5,0 -9,11 -9,24 0,14 -5,28 -10,31 -18,11 15,33 51,35 55,3 59,1 59,-25 0,-14 4,-25 9,-25 5,0 13,-9 16,-20 8,-24 68,-28 91,-6 16,16 19,86 4,86 -5,0 -10,8 -10,19 0,20 -25,31 -75,31 -20,0 -36,8 -49,25 -10,14 -27,25 -37,25 -12,0 -21,10 -25,25 -3,14 -9,25 -13,25 -15,0 -31,52 -31,98 0,36 5,51 20,62 11,8 20,19 20,26 0,19 34,52 60,57 43,9 144,1 148,-11 z m 732,-153 c 0,-5 6,-9 14,-9 8,0 31,-16 52,-35 20,-19 41,-35 45,-35 5,0 9,-6 9,-14 0,-8 5,-16 12,-18 7,-3 12,-30 12,-74 1,-64 -1,-69 -21,-72 -13,-2 -23,1 -23,7 0,5 -13,12 -30,16 -28,6 -30,10 -30,51 0,34 -6,51 -25,69 -64,65 -108,-17 -45,-85 17,-18 30,-37 30,-42 0,-6 8,-18 19,-27 10,-9 21,-26 25,-38 4,-13 12,-23 17,-23 5,0 9,-11 9,-25 0,-14 5,-25 10,-25 6,0 10,-22 10,-50 0,-27 -4,-50 -10,-50 -5,0 -10,-7 -10,-15 0,-8 -4,-15 -10,-15 -5,0 -10,-7 -10,-15 0,-8 -12,-26 -27,-41 -24,-24 -32,-26 -86,-22 -34,3 -63,10 -65,16 -2,7 -10,12 -18,12 -8,0 -14,4 -14,9 0,5 -10,13 -22,17 -34,11 -69,52 -75,89 -3,19 -10,35 -14,35 -5,0 -9,27 -9,59 0,49 3,61 19,66 21,6 51,-3 51,-16 0,-5 5,-9 11,-9 21,0 39,-30 39,-67 0,-57 10,-83 31,-83 11,0 19,-5 19,-11 0,-6 12,-9 28,-7 26,3 27,4 26,65 -1,59 -3,65 -37,97 -21,19 -37,38 -37,41 0,4 -7,13 -15,21 -8,9 -15,26 -15,40 0,13 -4,24 -10,24 -5,0 -10,8 -10,18 0,10 -5,23 -12,30 -9,9 -9,12 0,12 7,0 12,11 12,25 0,14 5,25 10,25 6,0 10,11 10,23 0,37 31,65 76,69 49,4 84,-2 84,-13 z M 1000,2240 c 0,-5 11,-10 24,-10 14,0 31,-7 40,-15 8,-8 19,-15 25,-15 6,0 11,-7 11,-15 0,-8 -4,-15 -10,-15 -5,0 -10,-8 -10,-18 0,-18 -33,-52 -50,-52 -6,0 -10,5 -10,10 0,6 -11,10 -25,10 -14,0 -25,-4 -25,-10 0,-5 -8,-10 -19,-10 -15,0 -20,-10 -25,-45 -8,-51 2,-135 15,-135 5,0 9,-9 9,-20 0,-11 4,-20 9,-20 5,0 12,-11 15,-25 4,-14 11,-25 16,-25 6,0 10,-4 10,-10 0,-17 34,-50 52,-50 10,0 18,-4 18,-10 0,-18 21,-10 51,19 24,24 29,38 29,75 0,25 -4,46 -10,46 -5,0 -10,11 -10,25 0,20 5,25 25,25 14,0 25,5 25,10 0,6 11,10 25,10 18,0 25,-5 25,-20 0,-11 5,-20 10,-20 6,0 10,-37 10,-90 0,-52 -4,-90 -10,-90 -5,0 -12,-11 -16,-25 -3,-14 -13,-25 -22,-25 -8,0 -28,-14 -45,-31 -27,-29 -33,-31 -86,-27 -51,4 -60,8 -104,50 -26,25 -47,53 -47,61 0,9 -8,18 -19,22 -11,3 -21,19 -25,37 -3,17 -16,39 -29,50 -21,18 -22,27 -22,146 v 127 l 43,43 c 29,29 55,45 78,49 19,3 34,10 34,14 0,5 5,9 10,9 6,0 10,-4 10,-10 z m 1080,-115 v -75 h -60 -60 v 75 75 h 60 60 z m -150,-115 c 0,-5 11,-10 25,-10 14,0 25,-4 25,-9 0,-5 27,-12 60,-16 33,-4 60,-11 60,-15 0,-5 21,-10 47,-12 45,-3 76,-28 35,-28 -12,0 -23,-9 -27,-19 -3,-11 -15,-23 -26,-26 -10,-4 -19,-11 -19,-16 0,-5 -7,-9 -15,-9 -8,0 -15,-7 -15,-15 0,-8 -7,-15 -15,-15 -8,0 -15,7 -15,15 0,8 -4,15 -10,15 -5,0 -10,5 -10,11 0,11 -25,39 -35,39 -4,0 -13,7 -21,15 -9,8 -26,15 -39,15 -15,0 -26,7 -30,20 -6,19 -25,28 -25,12 0,-4 -22,-16 -50,-26 -27,-10 -50,-22 -50,-27 0,-5 -7,-9 -15,-9 -8,0 -15,-4 -15,-9 0,-5 -11,-12 -25,-15 -14,-4 -25,-11 -25,-16 0,-6 -7,-10 -15,-10 -8,0 -15,-4 -15,-10 0,-5 -11,-10 -24,-10 -14,0 -31,-7 -40,-15 -8,-8 -17,-15 -21,-15 -4,0 -13,-7 -21,-15 -9,-8 -25,-15 -36,-15 -11,0 -28,-8 -37,-17 -9,-10 -38,-29 -66,-43 -27,-14 -51,-28 -53,-32 -2,-5 -12,-8 -22,-8 -10,0 -20,-7 -24,-15 -3,-8 -15,-15 -26,-15 -11,0 -20,-4 -20,-10 0,-5 -4,-10 -10,-10 -19,0 -50,-35 -50,-57 0,-13 -4,-23 -10,-23 -6,0 -10,-30 -10,-70 0,-56 -3,-70 -15,-70 -8,0 -15,5 -15,10 0,6 -32,10 -75,10 -43,0 -75,4 -75,10 0,6 -25,10 -55,10 h -55 l 12,25 c 6,14 22,28 35,31 13,4 23,10 23,15 0,5 7,9 16,9 8,0 13,4 10,9 -3,5 5,12 19,15 14,4 25,11 25,16 0,6 7,10 15,10 8,0 15,4 15,9 0,5 20,12 44,15 32,5 47,13 51,26 3,10 16,20 28,22 14,2 23,11 25,25 2,12 13,25 24,29 20,6 31,13 63,42 7,6 18,12 24,12 6,0 11,5 11,10 0,6 7,10 15,10 8,0 25,11 38,24 13,13 35,27 48,31 13,4 31,16 40,26 9,11 21,19 27,19 6,0 22,11 35,24 13,13 32,26 43,30 10,3 32,17 48,31 20,17 41,25 68,25 21,0 38,5 38,10 0,6 14,10 30,10 17,0 30,5 30,10 0,6 27,10 60,10 33,0 60,-4 60,-10 z m 365,-117 c 11,-12 28,-23 37,-23 9,0 20,-9 23,-20 7,-22 1,-21 179,-24 77,-1 111,-5 114,-14 2,-6 17,-12 33,-12 19,0 29,-5 29,-15 0,-8 -7,-15 -15,-15 -8,0 -15,-4 -15,-10 0,-5 -7,-10 -15,-10 -8,0 -15,-4 -15,-10 0,-5 -11,-10 -24,-10 -14,0 -32,-8 -42,-17 -10,-11 -38,-18 -75,-21 -49,-4 -59,-2 -59,12 0,9 -8,16 -19,16 -12,0 -21,9 -25,25 -4,14 -14,25 -22,25 -15,0 -104,82 -104,95 0,12 -29,35 -43,35 -8,0 -17,7 -20,15 -10,23 54,6 78,-22 z m -395,17 c 0,-5 7,-10 15,-10 8,0 15,-5 15,-11 0,-5 4,-8 9,-5 11,7 71,-50 71,-67 -1,-13 -62,-47 -85,-47 -8,0 -15,-4 -15,-8 0,-4 -22,-16 -50,-26 -27,-10 -50,-22 -50,-27 0,-4 -16,-11 -35,-15 -19,-3 -32,-10 -29,-15 3,-5 -2,-9 -10,-9 -9,0 -16,-4 -16,-9 0,-5 -17,-12 -37,-16 -20,-4 -44,-15 -53,-24 -8,-10 -30,-22 -48,-25 -17,-4 -32,-12 -32,-17 0,-5 -7,-9 -15,-9 -8,0 -15,-4 -15,-9 0,-15 -49,-19 -61,-5 -9,11 -8,14 2,15 10,0 11,2 2,6 -7,2 -13,13 -13,24 0,10 -4,19 -9,19 -13,0 -22,30 -16,50 3,11 20,21 40,24 19,4 35,11 35,16 0,5 16,12 35,16 20,3 37,13 40,24 3,11 20,21 40,24 19,4 35,11 35,16 0,6 7,10 15,10 8,0 15,4 15,9 0,5 16,12 35,15 19,4 35,11 35,16 0,6 7,10 15,10 8,0 15,4 15,10 0,5 10,12 23,15 13,4 30,15 37,26 15,20 60,27 60,9 z m 360,-69 c 0,-5 9,-12 19,-16 11,-3 23,-15 26,-25 3,-10 16,-22 28,-26 12,-4 33,-20 47,-37 50,-60 76,-84 98,-91 12,-4 22,-14 22,-23 0,-9 15,-30 33,-47 l 32,-31 -52,-3 c -29,-2 -53,-7 -53,-13 0,-28 -48,-1 -114,66 -41,41 -79,75 -85,75 -6,0 -11,4 -11,9 0,28 -86,19 -95,-10 -3,-10 -15,-21 -25,-24 -10,-3 -22,-15 -25,-26 -4,-10 -13,-19 -22,-19 -8,0 -40,-25 -69,-55 -30,-30 -61,-55 -69,-55 -8,0 -15,-4 -15,-10 0,-5 -7,-10 -15,-10 -8,0 -15,6 -15,13 0,7 -9,19 -20,27 -34,25 -24,40 25,40 42,0 45,2 45,28 0,63 9,73 58,70 48,-3 63,10 38,34 -13,14 -12,17 10,28 26,14 33,54 12,64 -7,4 3,4 22,1 19,-3 37,-10 38,-15 7,-20 22,-9 22,15 0,16 6,25 15,25 9,0 15,9 15,25 0,23 4,25 40,25 22,0 40,-4 40,-9 z m -310,-131 c 0,-5 -8,-10 -19,-10 -10,0 -27,-11 -37,-25 -10,-14 -24,-25 -31,-25 -7,0 -13,-4 -13,-10 0,-5 -47,-57 -104,-115 -86,-86 -110,-105 -134,-105 -23,0 -31,5 -36,25 -4,16 -13,25 -26,25 -11,0 -20,5 -20,10 0,6 -8,11 -17,11 -17,1 -17,2 0,6 9,2 17,9 17,14 0,5 9,9 19,9 10,0 21,7 25,15 3,8 15,15 26,15 11,0 20,5 20,10 0,6 7,10 15,10 8,0 15,4 15,10 0,5 16,12 35,16 19,3 35,10 35,15 0,5 7,9 15,9 8,0 15,4 15,9 0,5 13,12 28,16 15,3 35,15 42,26 8,11 32,22 52,26 21,3 38,9 38,14 0,5 9,9 20,9 11,0 20,-4 20,-10 z m 294,-76 c 9,-8 16,-19 16,-24 0,-5 9,-11 19,-15 11,-3 23,-15 26,-25 3,-10 15,-22 26,-25 10,-4 19,-14 19,-24 0,-16 -14,-19 -132,-25 -73,-4 -134,-12 -136,-17 -2,-5 -21,-9 -42,-9 -22,0 -40,-5 -43,-12 -2,-7 -8,-10 -12,-6 -7,7 97,118 110,118 8,0 49,36 73,65 17,19 56,19 76,-1 z m 368,-136 c 14,-14 18,-23 10,-26 -7,-2 -12,-19 -12,-37 0,-37 -15,-45 -87,-45 -35,0 -43,-3 -43,-19 0,-23 -19,-31 -76,-31 -36,0 -44,-3 -44,-19 0,-27 -76,-41 -137,-25 -26,7 -31,24 -8,24 8,0 15,4 15,9 0,5 23,12 50,16 28,4 50,11 50,16 0,5 16,9 36,9 32,0 64,18 64,35 0,4 7,13 15,21 8,9 15,26 15,39 0,22 5,25 60,31 33,4 60,11 60,15 0,14 8,11 32,-13 z m -212,-53 c 0,-18 -5,-25 -20,-25 -11,0 -20,-4 -20,-9 0,-5 -22,-12 -50,-16 -27,-4 -50,-11 -50,-16 0,-5 -11,-9 -25,-9 -14,0 -25,-4 -25,-10 0,-5 -18,-13 -40,-16 -22,-4 -40,-10 -40,-15 0,-5 -18,-9 -40,-9 -22,0 -40,4 -40,9 0,4 -27,11 -60,15 -33,4 -60,9 -60,12 0,19 37,34 94,40 36,4 66,11 66,15 0,5 14,9 30,9 17,0 30,4 30,9 0,4 35,11 78,15 42,3 79,11 80,16 2,6 24,10 48,10 40,0 44,-2 44,-25 z m 238,-171 c 8,-8 11,-22 7,-31 -3,-10 -3,-14 1,-11 8,8 34,-16 34,-31 0,-6 5,-11 10,-11 6,0 10,-31 10,-73 0,-61 -3,-75 -20,-87 -11,-8 -20,-19 -20,-26 0,-23 -39,-55 -74,-61 -20,-3 -36,-10 -36,-14 0,-5 -11,-9 -25,-9 -14,0 -25,-4 -25,-10 0,-5 -11,-12 -25,-16 -14,-3 -25,-9 -25,-13 0,-4 -15,-8 -32,-9 -18,-2 -34,-7 -36,-12 -2,-5 -19,-12 -38,-16 -19,-3 -34,-10 -34,-15 0,-5 -11,-9 -25,-9 -14,0 -25,-4 -25,-9 0,-5 -13,-12 -30,-16 -16,-4 -30,-11 -30,-16 0,-5 -9,-9 -20,-9 -11,0 -20,-4 -20,-9 0,-5 -22,-12 -50,-16 -27,-4 -50,-11 -50,-16 0,-5 -7,-9 -15,-9 -8,0 -15,-4 -15,-10 0,-5 -4,-10 -10,-10 -5,0 -10,9 -10,20 0,11 5,20 10,20 6,0 10,18 10,40 0,22 5,40 10,40 17,0 11,25 -10,40 -11,8 -23,29 -26,47 -6,29 -14,37 -35,35 -4,-1 -10,9 -13,23 -3,13 -15,26 -26,30 -10,3 -22,15 -25,26 -4,10 -15,19 -26,19 -10,0 -19,7 -19,15 0,11 12,15 44,15 30,0 46,5 50,15 4,10 20,15 51,15 25,0 45,5 45,10 0,6 11,10 24,10 13,0 26,7 30,15 3,9 19,15 41,15 19,0 35,5 35,10 0,6 11,10 24,10 13,0 26,6 29,13 3,9 54,12 215,10 176,-1 212,1 212,13 0,8 -7,14 -15,14 -8,0 -15,5 -15,10 0,6 -17,10 -37,10 -55,0 -113,11 -113,21 0,5 7,9 15,9 8,0 15,4 15,9 0,24 103,19 128,-5 z m -938,-9 c 0,-3 -11,-16 -25,-29 -26,-24 -33,-46 -15,-46 6,0 10,-9 10,-20 0,-15 7,-20 25,-20 14,0 25,5 25,10 0,6 16,10 36,10 19,0 33,4 30,9 -3,4 20,11 52,14 31,3 58,11 60,17 2,5 10,10 17,10 7,0 15,4 17,9 3,8 61,16 101,12 10,0 17,-9 17,-20 0,-27 -78,-41 -95,-17 -15,20 -25,21 -25,1 0,-8 5,-15 10,-15 6,0 10,-9 10,-20 0,-20 -2,-21 -81,-25 -17,-1 -35,-8 -41,-16 -7,-11 -11,-11 -15,-1 -2,6 -16,12 -29,12 -19,0 -24,-5 -24,-25 0,-23 -4,-25 -46,-25 -27,0 -43,-4 -39,-10 9,-15 -19,-12 -41,5 -26,20 -34,19 -34,-5 0,-35 -35,-60 -85,-60 h -45 v 49 c 0,32 6,55 16,65 8,9 11,16 5,16 -6,0 -11,5 -11,10 0,14 48,12 52,-2 3,-9 10,-8 23,5 15,16 16,20 4,28 -8,5 -17,9 -21,9 -18,0 -6,20 11,20 10,0 21,7 25,15 3,8 15,15 26,15 11,0 20,5 20,10 0,6 18,10 40,10 22,0 40,-2 40,-5 z"
       id="path26" />
    <path
       d="m 2960,2592 c 0,-4 -13,-13 -30,-19 -16,-6 -30,-18 -30,-26 0,-9 -9,-19 -20,-22 -11,-3 -20,-11 -20,-16 0,-5 -7,-9 -15,-9 -8,0 -15,-4 -15,-10 0,-5 -7,-10 -15,-10 -8,0 -15,9 -15,20 0,12 7,20 16,20 14,0 14,2 0,15 -16,17 -36,20 -36,6 0,-5 -10,-13 -22,-17 -23,-7 -48,-28 -48,-39 0,-4 6,-13 14,-21 16,-15 126,-20 126,-5 0,5 21,12 46,16 25,3 43,9 40,12 -3,3 6,16 19,29 14,13 25,30 25,39 0,16 36,20 58,6 10,-6 9,-10 -7,-14 -12,-3 -21,-11 -21,-17 0,-16 81,-4 92,13 12,19 9,37 -7,37 -8,0 -15,5 -15,10 0,6 -27,10 -60,10 -33,0 -60,-4 -60,-8 z"
       id="path28" />
    <path
       d="m 2983,2473 c -18,-2 -33,-8 -33,-14 0,-5 -20,-9 -45,-9 -25,0 -45,-4 -45,-10 0,-5 -17,-10 -37,-10 -41,0 -77,-18 -55,-27 6,-2 12,-9 12,-15 0,-20 30,-38 64,-38 34,0 36,2 36,35 0,34 1,35 40,35 33,0 40,-3 40,-20 0,-17 7,-20 45,-20 38,0 45,3 45,20 0,11 -5,20 -11,20 -6,0 -4,7 5,15 22,23 51,18 64,-10 10,-21 18,-25 57,-25 43,0 46,1 39,23 -14,44 -41,57 -118,55 -39,0 -86,-3 -103,-5 z"
       id="path30" />
    <path
       d="m 478,2189 c -16,-16 -28,-36 -28,-44 0,-8 -4,-15 -9,-15 -5,0 -11,-18 -15,-40 -3,-22 -11,-40 -16,-40 -6,0 -10,-18 -10,-40 0,-22 -4,-40 -10,-40 -5,0 -10,-9 -10,-20 0,-13 7,-20 19,-20 11,0 23,9 26,20 3,11 11,20 16,20 5,0 9,7 9,15 0,8 5,15 11,15 5,0 8,4 4,9 -3,5 -1,12 5,16 5,3 10,15 10,26 0,10 5,19 10,19 6,0 10,11 10,24 0,13 4,26 9,28 4,2 11,24 15,51 9,56 -5,61 -46,16 z"
       id="path32" />
    <path
       d="m 3108,2095 c 2,-41 8,-75 13,-75 5,0 9,-22 9,-50 0,-27 5,-50 10,-50 6,0 10,-11 10,-25 0,-14 -5,-25 -11,-25 -6,0 -9,-9 -6,-20 7,-28 -20,-26 -29,3 -4,12 -15,29 -25,38 -11,9 -19,21 -19,26 0,14 -32,48 -52,56 -10,3 -18,11 -18,17 0,5 -7,10 -15,10 -8,0 -15,5 -15,11 0,13 -25,39 -38,39 -6,0 -13,6 -15,13 -3,6 -6,0 -6,-15 -1,-15 6,-33 14,-42 8,-8 15,-19 15,-25 0,-6 5,-11 10,-11 6,0 10,-9 10,-20 0,-11 7,-23 15,-26 8,-4 15,-12 15,-20 0,-8 41,-54 90,-103 50,-49 90,-94 90,-100 0,-6 5,-11 10,-11 6,0 10,7 10,15 0,8 6,15 13,15 8,0 8,3 -2,9 -12,8 -12,12 2,26 10,9 17,32 17,50 0,19 5,37 10,40 6,3 10,12 10,18 0,7 -4,6 -10,-3 -8,-13 -10,-13 -10,2 0,9 6,19 13,21 8,4 9,8 1,14 -6,4 -14,44 -18,88 -3,44 -11,82 -16,83 -6,2 -10,10 -10,18 0,8 -7,14 -15,14 -9,0 -15,9 -15,21 0,20 -21,49 -37,49 -4,0 -7,-34 -5,-75 z"
       id="path34" />
    <path
       d="m 293,2085 c -7,-8 -16,-46 -19,-84 -4,-39 -11,-71 -15,-71 -5,0 -9,-30 -9,-66 0,-36 4,-63 9,-60 4,3 11,-25 14,-62 4,-37 11,-68 17,-70 5,-2 10,-10 10,-18 0,-8 5,-14 10,-14 6,0 10,-11 10,-25 0,-28 20,-33 44,-10 8,8 17,15 21,15 11,0 32,25 39,48 4,12 12,22 17,22 5,0 9,6 9,14 0,8 7,16 15,20 8,3 15,16 15,28 0,13 9,30 19,37 13,9 22,32 26,63 4,26 11,48 16,48 5,0 9,11 9,25 0,14 4,25 9,25 5,0 11,18 13,40 4,43 -10,53 -34,25 -7,-9 -19,-21 -26,-28 -13,-12 -28,-27 -49,-52 -7,-7 -13,-18 -13,-24 0,-6 -4,-11 -9,-11 -5,0 -12,-11 -15,-25 -4,-14 -11,-25 -16,-25 -6,0 -10,-6 -10,-14 0,-8 -9,-21 -20,-29 -11,-8 -17,-17 -12,-22 4,-5 1,-5 -5,-1 -9,5 -13,39 -13,112 0,63 -4,104 -10,104 -5,0 -10,15 -10,34 0,37 -8,66 -19,66 -3,-1 -12,-7 -18,-15 z"
       id="path36" />
    <path
       d="m 3323,1818 c -6,-7 -13,-25 -17,-40 -3,-16 -11,-28 -16,-28 -6,0 -10,-7 -10,-15 0,-8 -4,-15 -9,-15 -5,0 -12,-11 -15,-25 -4,-14 -12,-25 -19,-25 -8,0 -7,-4 3,-10 10,-6 11,-10 3,-10 -7,0 -13,-7 -13,-15 0,-8 -4,-15 -10,-15 -5,0 -12,-17 -16,-37 -7,-36 -43,-83 -64,-83 -5,0 -10,11 -10,25 0,14 -4,25 -10,25 -5,0 -10,9 -10,21 0,23 -30,79 -42,79 -4,0 -8,7 -8,15 0,8 -11,25 -25,39 -14,14 -25,30 -25,36 0,5 -7,10 -15,10 -12,0 -15,-14 -15,-65 0,-36 4,-65 9,-65 5,0 11,-18 15,-40 3,-22 11,-40 16,-40 6,0 10,-16 10,-35 0,-19 4,-35 9,-35 5,0 11,-22 15,-50 4,-27 11,-50 16,-50 6,0 10,-11 10,-25 0,-14 5,-25 10,-25 6,0 10,-7 10,-15 0,-8 4,-15 9,-15 21,0 41,13 41,26 0,8 34,48 75,90 48,47 78,86 82,105 3,16 9,29 14,29 5,0 9,12 9,26 0,14 4,23 9,20 12,-8 21,54 21,141 0,95 -12,123 -37,91 z"
       id="path38" />
    <path
       d="m 123,1714 c -9,-24 5,-158 17,-162 5,-2 10,-15 10,-28 0,-13 4,-24 9,-24 5,0 12,-11 15,-25 4,-14 11,-25 16,-25 6,0 10,-7 10,-15 0,-8 4,-15 9,-15 5,0 13,-9 16,-21 4,-11 45,-58 91,-105 46,-46 84,-88 84,-94 0,-5 11,-10 25,-10 20,0 25,5 25,25 0,14 4,25 9,25 5,0 12,23 16,50 4,28 11,50 16,50 5,0 9,18 9,39 0,22 5,41 10,43 14,4 24,238 12,257 -9,12 -12,12 -25,0 -8,-8 -18,-25 -21,-37 -4,-12 -12,-22 -17,-22 -5,0 -9,-7 -9,-15 0,-8 -4,-15 -9,-15 -5,0 -12,-22 -16,-50 -4,-27 -11,-50 -16,-50 -5,0 -9,-16 -9,-35 0,-19 -4,-35 -10,-35 -5,0 -10,-7 -10,-15 0,-8 -7,-15 -15,-15 -8,0 -15,7 -15,15 0,8 -4,15 -9,15 -5,0 -12,11 -15,25 -4,14 -11,25 -16,25 -6,0 -10,7 -10,15 0,8 -4,15 -9,15 -5,0 -12,16 -15,35 -4,19 -10,35 -15,35 -4,0 -16,17 -27,38 -10,20 -27,44 -36,53 -10,9 -18,21 -18,27 0,13 -28,42 -41,42 -5,0 -12,-7 -16,-16 z"
       id="path40" />
    <path
       d="m 2950,1445 c 0,-14 -4,-25 -10,-25 -6,0 -10,-28 -10,-65 0,-36 4,-65 9,-65 5,0 12,-54 16,-120 4,-66 11,-120 16,-120 5,0 9,-18 9,-41 0,-24 4,-38 10,-34 6,3 10,-3 10,-15 0,-18 4,-20 23,-14 12,4 24,10 27,13 3,3 22,15 43,26 20,11 37,24 37,30 0,5 5,3 10,-5 8,-12 10,-11 10,8 0,13 6,22 15,22 8,0 15,5 15,11 0,6 14,24 30,41 17,16 28,33 25,38 -3,4 2,10 10,14 8,3 15,15 15,26 0,11 5,20 10,20 6,0 10,6 10,14 0,8 4,16 10,18 5,2 13,31 16,66 4,34 11,62 15,62 5,0 9,11 9,25 0,14 -4,25 -9,25 -23,0 -41,-14 -41,-31 0,-10 -6,-19 -14,-19 -17,0 -86,-65 -86,-80 0,-6 -17,-27 -37,-46 -20,-20 -38,-44 -40,-53 -1,-8 -7,-17 -12,-19 -6,-2 -11,-10 -11,-18 0,-8 -6,-14 -13,-14 -10,0 -15,19 -16,73 -1,39 -6,74 -12,75 -5,2 -9,21 -9,43 0,21 -4,39 -9,39 -5,0 -12,20 -15,45 -4,25 -11,45 -17,45 -5,0 -9,7 -9,15 0,8 -7,15 -15,15 -9,0 -15,-9 -15,-25 z"
       id="path42" />
    <path
       d="m 550,1405 c 0,-8 -4,-15 -9,-15 -5,0 -12,-31 -16,-70 -4,-38 -11,-70 -16,-70 -5,0 -9,-29 -9,-65 0,-37 -4,-65 -10,-65 -5,0 -9,-6 -7,-12 1,-7 -10,-14 -24,-16 -21,-2 -28,2 -33,22 -3,13 -15,27 -26,31 -10,3 -22,15 -25,25 -4,11 -17,23 -31,26 -13,3 -21,10 -18,15 3,5 0,9 -6,9 -16,0 -36,22 -44,47 -4,12 -17,23 -29,25 -14,2 -23,11 -25,26 -2,14 -10,22 -23,22 -15,0 -19,-7 -19,-35 0,-19 5,-35 10,-35 6,0 10,-11 10,-25 0,-14 4,-25 10,-25 5,0 12,-11 16,-25 3,-14 10,-25 15,-25 5,0 9,-7 9,-15 0,-8 5,-15 10,-15 6,0 10,-9 10,-20 0,-11 7,-23 15,-26 8,-4 15,-12 15,-20 0,-18 103,-120 129,-129 12,-3 19,-11 16,-16 -4,-5 0,-9 8,-9 8,0 17,-7 21,-15 3,-8 15,-15 26,-15 11,0 20,-4 20,-10 0,-5 5,-10 11,-10 7,0 22,-12 35,-26 21,-22 26,-24 39,-10 18,18 20,56 3,56 -10,0 -10,2 -1,8 18,11 23,416 5,434 -6,6 -12,20 -12,31 0,10 -4,16 -9,13 -5,-3 -12,5 -15,19 -7,27 -26,34 -26,10 z"
       id="path44" />
    <path
       d="m 2880,1085 c 0,-8 -4,-15 -10,-15 -5,0 -10,-11 -10,-24 0,-14 -7,-31 -15,-40 -8,-8 -15,-19 -15,-25 0,-6 -4,-11 -10,-11 -5,0 -12,-16 -16,-35 -3,-19 -10,-35 -15,-35 -5,0 -9,-7 -9,-15 0,-8 -4,-15 -9,-15 -5,0 -12,-34 -16,-75 -4,-41 -11,-75 -16,-75 -5,0 -9,-25 -9,-56 0,-41 -3,-53 -12,-48 -9,5 -9,2 1,-9 7,-10 27,-17 46,-17 56,0 125,12 119,21 -3,5 4,9 16,9 12,0 18,5 15,10 -3,6 5,10 19,10 13,0 31,7 40,15 8,8 19,15 25,15 6,0 11,4 11,9 0,5 15,12 33,15 18,3 39,15 47,26 8,11 20,20 27,20 7,0 13,7 13,15 0,8 4,15 9,15 5,0 12,11 15,25 4,14 11,25 16,25 6,0 10,7 10,15 0,8 4,15 9,15 5,0 12,23 16,50 4,28 11,50 16,50 5,0 9,9 9,19 0,11 5,23 10,26 15,9 2,25 -19,25 -10,0 -24,-11 -31,-25 -7,-14 -19,-25 -27,-25 -7,0 -13,-7 -13,-15 0,-8 -9,-15 -19,-15 -11,0 -22,-9 -26,-19 -3,-11 -15,-23 -25,-26 -10,-3 -22,-15 -25,-26 -4,-10 -11,-17 -16,-14 -5,3 -29,-15 -54,-40 -25,-25 -52,-45 -60,-45 -8,0 -15,-4 -15,-10 0,-5 -7,-10 -15,-10 -17,0 -21,46 -5,52 5,2 13,44 16,93 4,50 12,93 18,97 8,5 7,8 -1,8 -7,0 -13,11 -13,25 0,14 5,25 10,25 6,0 10,9 10,21 0,11 -4,17 -10,14 -5,-3 -10,-1 -10,4 0,6 -7,11 -15,11 -8,0 -15,-7 -15,-15 z"
       id="path46" />
    <path
       d="m 650,975 c 0,-41 4,-75 9,-75 5,0 13,-25 16,-55 4,-30 11,-55 16,-55 5,0 9,-9 9,-19 0,-11 4,-21 10,-23 5,-2 12,-25 15,-53 3,-27 3,-44 -1,-37 -3,6 -12,12 -20,12 -8,0 -32,18 -53,40 -21,22 -45,40 -54,40 -9,0 -18,9 -22,19 -3,11 -16,23 -27,27 -12,3 -32,17 -45,30 -13,13 -29,24 -35,24 -6,0 -18,8 -27,19 -9,10 -26,21 -38,25 -13,4 -23,11 -23,16 0,11 -29,40 -41,40 -17,0 -10,-72 10,-89 10,-9 21,-26 25,-38 4,-12 16,-25 27,-28 10,-4 19,-13 19,-22 0,-17 133,-153 150,-153 5,0 10,-4 10,-10 0,-5 9,-10 20,-10 11,0 23,-7 26,-15 4,-9 19,-15 40,-15 19,0 34,-4 34,-10 0,-5 23,-12 50,-16 28,-4 50,-10 50,-15 0,-5 16,-9 35,-9 19,0 35,-4 35,-10 0,-5 5,-10 11,-10 15,0 43,30 35,37 -3,4 -6,3 -6,-1 0,-4 -7,-1 -15,7 -8,8 -17,33 -21,56 -4,23 -10,41 -15,41 -5,0 -9,25 -9,55 0,30 -4,55 -9,55 -4,0 -11,21 -14,47 -3,26 -10,49 -16,51 -6,2 -11,15 -11,28 0,13 -4,24 -10,24 -5,0 -12,11 -16,25 -3,14 -10,25 -15,25 -5,0 -9,6 -9,13 0,18 -67,87 -85,87 -12,0 -15,-15 -15,-75 z"
       id="path48" />
    <path
       d="m 2630,779 c -45,-44 -73,-80 -76,-99 -4,-16 -14,-32 -24,-35 -11,-3 -21,-20 -24,-40 -4,-19 -11,-35 -16,-35 -6,0 -10,-7 -10,-15 0,-8 -4,-15 -9,-15 -5,0 -11,-14 -15,-31 -3,-16 -22,-46 -42,-65 -21,-19 -34,-37 -31,-41 4,-3 97,-6 208,-7 154,-1 203,2 206,12 3,6 11,12 19,12 8,0 14,4 14,10 0,5 16,12 35,16 19,3 35,10 35,15 0,5 5,9 11,9 16,0 119,107 119,124 0,12 -6,13 -32,5 -18,-5 -34,-14 -36,-19 -2,-6 -17,-10 -33,-10 -16,0 -29,-4 -29,-9 0,-8 -117,-24 -167,-23 -13,0 -20,-4 -17,-9 3,-5 -9,-9 -25,-9 -17,0 -31,-4 -31,-10 0,-5 -13,-10 -29,-10 -24,0 -28,3 -24,20 3,11 9,20 14,20 5,0 9,7 9,15 0,8 4,15 10,15 5,0 13,18 16,40 4,22 10,40 15,40 5,0 9,11 9,25 0,14 4,25 10,25 5,0 12,27 16,60 4,33 11,60 15,60 15,0 10,17 -6,23 -9,4 -40,-20 -85,-64 z"
       id="path50" />
    <path
       d="m 850,826 c 0,-8 4,-17 9,-20 5,-4 12,-29 16,-56 4,-28 11,-50 16,-50 5,0 9,-7 9,-15 0,-8 5,-15 10,-15 6,0 10,-11 10,-24 0,-24 23,-56 40,-56 4,0 11,-15 14,-33 3,-18 17,-41 31,-51 14,-10 25,-29 25,-41 0,-18 -4,-21 -25,-17 -14,2 -28,8 -31,13 -3,5 -25,9 -50,9 -24,0 -44,4 -44,9 0,4 -39,11 -87,15 -49,3 -89,11 -91,16 -2,6 -11,10 -20,10 -9,0 -26,7 -36,15 -11,8 -30,15 -43,15 -22,0 -21,-3 16,-40 22,-22 42,-40 46,-40 4,0 13,-6 20,-12 33,-30 45,-38 55,-38 5,0 10,-4 10,-8 0,-5 17,-16 38,-25 31,-13 69,-17 185,-17 81,0 155,4 165,10 9,5 43,12 75,15 47,5 57,10 57,26 0,11 -7,19 -16,19 -18,0 -104,83 -104,100 0,5 -4,10 -10,10 -5,0 -12,11 -16,25 -3,14 -10,25 -15,25 -5,0 -9,9 -9,19 0,10 -7,21 -15,25 -8,3 -15,11 -15,19 0,7 -11,23 -25,35 -14,12 -25,26 -25,32 0,5 -9,10 -19,10 -12,0 -21,9 -25,25 -4,16 -13,25 -27,25 -11,0 -22,7 -25,15 -4,8 -15,15 -25,15 -10,0 -19,5 -19,10 0,6 -7,10 -15,10 -8,0 -15,-6 -15,-14 z"
       id="path52" />
    <path
       d="m 1443,393 c -35,-2 -63,-8 -63,-13 0,-6 -13,-10 -30,-10 -16,0 -30,-4 -30,-9 0,-5 -27,-12 -60,-16 -33,-4 -60,-11 -60,-16 0,-5 -18,-9 -39,-9 -22,0 -41,-4 -43,-10 -1,-5 -58,-13 -126,-17 -101,-5 -122,-9 -117,-20 3,-8 5,-16 5,-18 0,-2 16,-7 35,-11 19,-3 35,-10 35,-15 0,-5 6,-9 14,-9 8,0 16,-5 18,-10 2,-6 36,-13 76,-17 39,-3 72,-10 72,-14 0,-5 9,-9 20,-9 11,0 20,4 20,9 0,4 39,11 87,14 50,3 89,10 91,16 2,6 19,11 38,11 19,0 34,4 34,9 0,5 14,12 30,16 17,4 30,11 30,16 0,5 9,9 19,9 11,0 21,5 23,11 2,6 25,13 51,16 26,3 47,10 47,14 0,5 18,9 40,9 29,0 40,-4 40,-15 0,-8 -6,-15 -13,-15 -7,0 -19,-9 -27,-20 -8,-11 -29,-23 -47,-26 -19,-4 -35,-14 -38,-25 -3,-10 -15,-21 -26,-24 -10,-4 -19,-11 -19,-16 0,-5 -7,-9 -15,-9 -8,0 -15,-4 -15,-9 0,-5 -10,-13 -22,-17 -23,-7 -58,-40 -58,-55 0,-4 3,-14 6,-23 7,-19 28,-9 88,41 8,7 18,13 22,13 4,0 21,15 38,33 17,18 34,33 38,33 4,-1 17,7 28,16 11,10 25,18 30,18 6,0 10,4 10,10 0,5 11,12 25,16 14,3 25,10 25,15 0,5 7,9 15,9 8,0 15,5 15,10 0,6 16,10 35,10 19,0 35,-4 35,-10 0,-5 7,-10 15,-10 8,0 15,-4 15,-10 0,-5 9,-10 20,-10 11,0 23,-7 26,-15 4,-8 15,-15 25,-15 10,0 19,-4 19,-9 0,-5 11,-12 25,-15 14,-4 25,-11 25,-16 0,-6 7,-10 15,-10 8,0 15,-4 15,-10 0,-5 11,-12 25,-16 14,-3 25,-10 25,-16 0,-5 4,-7 9,-3 6,3 14,-2 19,-10 11,-20 122,-34 122,-16 0,17 -21,37 -47,45 -12,4 -25,16 -28,27 -4,10 -15,19 -26,19 -11,0 -22,7 -25,15 -4,8 -14,15 -24,15 -10,0 -20,7 -24,15 -3,8 -15,15 -26,15 -11,0 -20,5 -20,10 0,6 -7,10 -15,10 -8,0 -15,4 -15,9 0,5 -11,12 -25,15 -16,4 -25,13 -25,26 0,18 7,20 60,20 33,0 60,-4 60,-10 0,-5 7,-10 15,-10 8,0 15,-4 15,-10 0,-5 15,-12 34,-15 19,-4 43,-15 54,-25 11,-10 40,-22 66,-25 25,-4 46,-10 46,-14 0,-4 21,-8 48,-10 26,-1 49,-6 50,-12 5,-12 202,-12 202,1 0,6 11,10 25,10 14,0 25,4 25,9 0,5 18,11 40,15 22,3 40,11 40,16 0,6 9,10 20,10 11,0 20,5 20,10 0,6 7,10 15,10 8,0 15,7 15,15 0,11 -11,15 -41,15 -24,0 -38,-4 -34,-10 3,-5 -3,-10 -15,-10 -12,0 -18,5 -15,10 4,6 -18,10 -59,10 -35,0 -66,5 -68,10 -2,6 -33,13 -71,17 -37,3 -67,10 -67,14 0,5 -13,9 -29,9 -16,0 -31,5 -33,12 -5,15 -184,23 -332,13 -64,-4 -113,-11 -110,-16 3,-5 -36,-9 -91,-9 -62,0 -94,4 -90,10 4,6 -14,10 -48,10 -30,0 -81,2 -113,4 -32,2 -87,1 -121,-1 z"
       id="path54" />
  </g>
</svg>
